<svg width="383" height="98" viewBox="0 0 383 98" fill="none" xmlns="http://www.w3.org/2000/svg">
<path d="M77.1094 67V34.2727H85.9943V59.8409H99.2259V67H77.1094ZM162.423 67V34.2727H170.333V47.4084H183.229V34.2727H191.123V67H183.229V53.8484H170.333V67H162.423ZM282.865 44.9634C282.684 44.2923 282.418 43.701 282.066 43.1896C281.715 42.6676 281.283 42.2255 280.772 41.8633C280.261 41.5011 279.675 41.2294 279.014 41.0483C278.354 40.8565 277.629 40.7607 276.841 40.7607C275.253 40.7607 273.879 41.1442 272.718 41.9112C271.567 42.6783 270.678 43.7969 270.049 45.267C269.421 46.7266 269.106 48.5004 269.106 50.5884C269.106 52.6871 269.41 54.4769 270.017 55.9577C270.625 57.4386 271.503 58.5678 272.654 59.3455C273.805 60.1232 275.2 60.5121 276.841 60.5121C278.29 60.5121 279.515 60.2777 280.516 59.8089C281.528 59.3295 282.295 58.6531 282.817 57.7795C283.339 56.9059 283.6 55.8778 283.6 54.6953L285.071 54.8711H277.112V49.1023H291.223V53.4329C291.223 56.3626 290.6 58.8714 289.353 60.9595C288.117 63.0476 286.413 64.6509 284.24 65.7695C282.077 66.8881 279.589 67.4474 276.777 67.4474C273.655 67.4474 270.912 66.771 268.547 65.418C266.182 64.065 264.339 62.1367 263.018 59.6332C261.697 57.119 261.036 54.136 261.036 50.6843C261.036 47.9996 261.436 45.6186 262.235 43.5412C263.034 41.4531 264.147 39.6847 265.575 38.2358C267.013 36.7869 268.675 35.6896 270.561 34.9439C272.457 34.1982 274.497 33.8253 276.681 33.8253C278.577 33.8253 280.34 34.0969 281.97 34.6403C283.611 35.1836 285.06 35.9506 286.317 36.9414C287.585 37.9322 288.613 39.1094 289.401 40.473C290.19 41.8366 290.68 43.3335 290.871 44.9634H282.865Z" fill="#E58E27"/>
<path d="M107.079 67H101.411L108.773 45.1818H115.793L123.155 67H117.487L112.363 50.679H112.192L107.079 67ZM106.322 58.4134H118.169V62.419H106.322V58.4134ZM122.065 49.4645V45.1818H140.506V49.4645H133.891V67H128.692V49.4645H122.065ZM143.082 67V45.1818H158.295V49.4645H148.355V53.9389H157.517V58.2322H148.355V62.7173H158.295V67H143.082ZM215.853 56.0909C215.853 58.4915 215.391 60.5263 214.468 62.1953C213.544 63.8643 212.294 65.1321 210.718 65.9986C209.148 66.8651 207.387 67.2983 205.434 67.2983C203.473 67.2983 201.709 66.8615 200.139 65.9879C198.569 65.1143 197.323 63.8466 196.4 62.1847C195.483 60.5156 195.025 58.4844 195.025 56.0909C195.025 53.6903 195.483 51.6555 196.4 49.9865C197.323 48.3175 198.569 47.0497 200.139 46.1832C201.709 45.3168 203.473 44.8835 205.434 44.8835C207.387 44.8835 209.148 45.3168 210.718 46.1832C212.294 47.0497 213.544 48.3175 214.468 49.9865C215.391 51.6555 215.853 53.6903 215.853 56.0909ZM210.462 56.0909C210.462 54.6705 210.26 53.4702 209.855 52.4901C209.457 51.5099 208.882 50.7678 208.129 50.2635C207.383 49.7592 206.485 49.5071 205.434 49.5071C204.39 49.5071 203.491 49.7592 202.738 50.2635C201.986 50.7678 201.407 51.5099 201.002 52.4901C200.604 53.4702 200.405 54.6705 200.405 56.0909C200.405 57.5114 200.604 58.7116 201.002 59.6918C201.407 60.6719 201.986 61.4141 202.738 61.9183C203.491 62.4226 204.39 62.6747 205.434 62.6747C206.485 62.6747 207.383 62.4226 208.129 61.9183C208.882 61.4141 209.457 60.6719 209.855 59.6918C210.26 58.7116 210.462 57.5114 210.462 56.0909ZM232.131 45.1818H237.394V59.255C237.394 60.8814 237.007 62.2983 236.233 63.5057C235.459 64.706 234.379 65.6364 232.994 66.2969C231.609 66.9503 230 67.277 228.168 67.277C226.314 67.277 224.695 66.9503 223.31 66.2969C221.925 65.6364 220.849 64.706 220.082 63.5057C219.315 62.2983 218.932 60.8814 218.932 59.255V45.1818H224.205V58.7969C224.205 59.5497 224.368 60.2209 224.695 60.8104C225.029 61.3999 225.494 61.8615 226.091 62.1953C226.687 62.5291 227.38 62.696 228.168 62.696C228.956 62.696 229.645 62.5291 230.235 62.1953C230.831 61.8615 231.297 61.3999 231.63 60.8104C231.964 60.2209 232.131 59.5497 232.131 58.7969V45.1818ZM240.699 67V45.1818H249.712C251.345 45.1818 252.755 45.4766 253.941 46.0661C255.135 46.6484 256.054 47.4865 256.701 48.5803C257.347 49.6669 257.67 50.956 257.67 52.4474C257.67 53.9602 257.34 55.2457 256.679 56.304C256.019 57.3551 255.081 58.1577 253.867 58.7116C252.652 59.2585 251.214 59.532 249.552 59.532H243.853V55.3771H248.572C249.367 55.3771 250.032 55.2741 250.564 55.0682C251.104 54.8551 251.512 54.5355 251.789 54.1094C252.066 53.6761 252.205 53.1222 252.205 52.4474C252.205 51.7727 252.066 51.2152 251.789 50.7749C251.512 50.3274 251.104 49.9936 250.564 49.7734C250.024 49.5462 249.36 49.4325 248.572 49.4325H245.973V67H240.699ZM252.983 57.0284L258.416 67H252.663L247.336 57.0284H252.983ZM299.779 67H294.111L301.473 45.1818H308.493L315.855 67H310.187L305.063 50.679H304.893L299.779 67ZM299.023 58.4134H310.869V62.419H299.023V58.4134ZM318.204 45.1818H324.735L330.274 58.6903H330.53L336.07 45.1818H342.6V67H337.465V53.598H337.284L332.043 66.8615H328.762L323.52 53.5234H323.339V67H318.204V45.1818ZM345.89 67V45.1818H361.103V49.4645H351.163V53.9389H360.325V58.2322H351.163V62.7173H361.103V67H345.89ZM376.199 51.723C376.127 50.9418 375.811 50.3345 375.25 49.9013C374.696 49.4609 373.904 49.2408 372.875 49.2408C372.193 49.2408 371.625 49.3295 371.17 49.5071C370.716 49.6847 370.375 49.9297 370.147 50.2422C369.92 50.5476 369.803 50.8991 369.796 51.2969C369.782 51.6236 369.846 51.9112 369.988 52.1598C370.137 52.4084 370.35 52.6286 370.627 52.8203C370.911 53.005 371.252 53.1683 371.65 53.3104C372.047 53.4524 372.495 53.5767 372.992 53.6832L374.867 54.1094C375.946 54.3438 376.898 54.6562 377.722 55.0469C378.553 55.4375 379.249 55.9027 379.81 56.4425C380.378 56.9822 380.808 57.6037 381.099 58.3068C381.39 59.0099 381.539 59.7983 381.547 60.6719C381.539 62.0497 381.191 63.2322 380.502 64.2195C379.814 65.2067 378.823 65.9631 377.53 66.4886C376.245 67.0142 374.693 67.277 372.875 67.277C371.049 67.277 369.458 67.0036 368.102 66.4567C366.745 65.9098 365.691 65.0788 364.938 63.9638C364.185 62.8487 363.798 61.4389 363.777 59.7344H368.826C368.869 60.4375 369.057 61.0234 369.391 61.4922C369.725 61.9609 370.183 62.3161 370.765 62.5575C371.355 62.799 372.037 62.9197 372.811 62.9197C373.521 62.9197 374.125 62.8239 374.622 62.6321C375.126 62.4403 375.513 62.174 375.783 61.8331C376.053 61.4922 376.191 61.1016 376.199 60.6612C376.191 60.2493 376.064 59.8977 375.815 59.6065C375.566 59.3082 375.183 59.0526 374.664 58.8395C374.153 58.6193 373.5 58.4169 372.704 58.2322L370.424 57.6996C368.535 57.2663 367.047 56.5668 365.961 55.6009C364.874 54.6278 364.334 53.3139 364.341 51.6591C364.334 50.3097 364.696 49.1271 365.428 48.1115C366.159 47.0959 367.172 46.304 368.464 45.7358C369.757 45.1676 371.23 44.8835 372.885 44.8835C374.576 44.8835 376.042 45.1712 377.285 45.7464C378.535 46.3146 379.505 47.1136 380.194 48.1435C380.882 49.1733 381.234 50.3665 381.248 51.723H376.199Z" fill="white"/>
<g clip-path="url(#clip0_193_21)">
<path d="M63.3213 48.2697L44.2077 34.8862C36.2906 29.3426 25.3786 31.2667 19.835 39.1838C14.2914 47.1009 16.2155 58.0129 24.1325 63.5565L43.2461 76.94C51.1632 82.4836 62.0752 80.5595 67.6188 72.6424C73.1624 64.7253 71.2384 53.8133 63.3213 48.2697Z" fill="white" stroke="#E58E27" stroke-width="4" stroke-linejoin="round"/>
<path d="M37.5159 44.443L30.8241 53.9998" stroke="#804848" stroke-width="4" stroke-linecap="round" stroke-linejoin="round"/>
<path d="M29.3916 45.8755L38.9484 52.5672" stroke="#804848" stroke-width="4" stroke-linecap="round" stroke-linejoin="round"/>
<path d="M55.4373 39.1888L60.695 31.6799L70.2518 38.3716L75.0316 31.5454" stroke="#E58E27" stroke-width="4" stroke-linecap="round" stroke-linejoin="round"/>
<path d="M49.9377 67.3832C52.5768 69.2311 56.2141 68.5897 58.062 65.9507C59.9099 63.3117 59.2685 59.6743 56.6295 57.8265C53.9904 55.9786 50.3531 56.6199 48.5052 59.259C46.6573 61.898 47.2987 65.5354 49.9377 67.3832Z" fill="white" stroke="#804848" stroke-width="4" stroke-linejoin="round"/>
</g>
<defs>
<clipPath id="clip0_193_21">
<rect width="70" height="70" fill="white" transform="translate(40.1504) rotate(35)"/>
</clipPath>
</defs>
</svg>
