<svg width="32" height="31" viewBox="0 0 32 31" fill="none" xmlns="http://www.w3.org/2000/svg">
<path d="M30.6344 28.7905L21.7327 19.8825C23.4876 17.7779 24.5431 15.0883 24.5431 12.1508C24.5431 5.44908 19.0432 0 12.2779 0C5.51267 0 0 5.45544 0 12.1571C0 18.8588 5.49995 24.3079 12.2652 24.3079C15.1392 24.3079 17.7842 23.3223 19.8825 21.6755L28.8159 30.609C29.3373 31.1303 30.113 31.1303 30.6344 30.609C31.1558 30.0876 31.1558 29.3119 30.6344 28.7905ZM2.60691 12.1571C2.60691 6.89242 6.94329 2.61327 12.2652 2.61327C17.5871 2.61327 21.9235 6.89242 21.9235 12.1571C21.9235 17.4218 17.5871 21.701 12.2652 21.701C6.94329 21.701 2.60691 17.4154 2.60691 12.1571Z" fill="#A0A0A0"/>
</svg>
